<?xml version="1.0" standalone="no"?>
<!DOCTYPE svg PUBLIC "-//W3C//DTD SVG 20010904//EN"
 "http://www.w3.org/TR/2001/REC-SVG-20010904/DTD/svg10.dtd">
<svg version="1.0" xmlns="http://www.w3.org/2000/svg"
 width="1176.000000pt" height="784.000000pt" viewBox="0 0 1176.000000 784.000000"
 preserveAspectRatio="xMidYMid meet">
<metadata>
Created by potrace 1.16, written by Peter Selinger 2001-2019
</metadata>
<g transform="translate(0.000000,784.000000) scale(0.100000,-0.100000)"
fill="#000000" stroke="none">
<path d="M5268 6183 l-558 -3 0 -860 c0 -519 4 -860 9 -860 5 0 96 90 203 200
l193 200 5 461 5 461 449 3 448 3 47 46 c26 25 51 46 57 46 5 0 32 -22 59 -50
l49 -50 86 0 c198 0 373 -48 495 -134 106 -77 172 -171 200 -288 55 -235 -54
-464 -270 -568 -78 -37 -158 -60 -415 -115 -437 -93 -766 -296 -1002 -616 -70
-96 -184 -287 -175 -295 2 -3 17 10 33 28 120 135 364 285 598 367 166 58 275
81 741 157 226 36 404 98 535 187 68 46 187 165 232 231 51 73 91 163 120 263
20 68 23 100 22 253 0 147 -4 188 -22 255 -99 362 -382 597 -793 659 -123 19
-507 25 -1351 19z"/>
<path d="M6160 5244 c0 -30 -49 -401 -56 -422 -2 -9 -44 21 -110 80 -58 51
-118 102 -131 112 l-26 20 -26 -31 c-14 -16 -109 -134 -210 -261 -168 -212
-221 -275 -176 -206 46 70 137 226 134 229 -9 8 -603 -384 -776 -512 l-73 -54
0 -342 c1 -325 2 -341 18 -321 9 11 118 148 242 304 240 303 347 423 469 524
217 181 482 314 769 386 98 25 260 50 320 50 23 0 42 4 42 9 0 11 -387 454
-401 459 -5 2 -9 -9 -9 -24z"/>
<path d="M5529 5223 c-13 -16 -12 -17 4 -4 9 7 17 15 17 17 0 8 -8 3 -21 -13z"/>
<path d="M5455 5147 c-28 -29 -60 -63 -70 -77 l-20 -25 26 23 c17 15 28 19 31
12 2 -8 9 -6 18 6 9 11 10 15 3 10 -7 -4 -13 -4 -13 1 0 8 59 66 73 71 8 2 10
9 5 22 -2 5 -26 -14 -53 -43z"/>
<path d="M5497 5133 c-4 -3 -7 -13 -7 -22 1 -13 3 -13 11 2 11 19 8 33 -4 20z"/>
<path d="M5566 5119 c-14 -11 -31 -17 -38 -13 -7 4 -10 4 -6 -1 4 -4 2 -15 -5
-24 -6 -8 9 0 36 19 43 31 53 40 43 40 -2 0 -15 -9 -30 -21z"/>
<path d="M5444 5065 c-10 -8 -14 -15 -8 -15 6 0 17 7 24 15 16 19 9 19 -16 0z"/>
<path d="M5463 5048 c-21 -21 -23 -21 -42 -4 -14 13 -21 14 -27 5 -5 -8 -3
-10 6 -4 9 6 12 4 8 -6 -9 -24 37 -19 68 7 16 13 24 23 19 24 -6 0 -20 -10
-32 -22z"/>
<path d="M5349 5038 c0 -2 -2 -11 -4 -21 -4 -22 -24 -47 -38 -47 -5 0 -2 10 9
23 17 20 16 20 -9 -2 -27 -24 -36 -38 -17 -26 12 7 14 -8 3 -19 -5 -4 -8 -13
-8 -19 0 -7 -11 -14 -24 -15 -17 -3 -21 0 -16 10 4 7 -29 -23 -74 -67 -44 -44
-81 -81 -81 -83 0 -2 28 17 63 41 34 25 61 51 59 57 -1 6 2 9 8 5 11 -7 84 44
75 53 -7 7 15 32 27 32 6 0 4 -8 -3 -17 -8 -9 7 -2 33 15 48 33 56 62 16 62
-10 0 -16 5 -13 10 3 6 4 10 1 10 -3 0 -6 -1 -7 -2z m5 -62 c-6 -15 -24 -23
-24 -11 0 8 24 34 28 30 1 -1 0 -10 -4 -19z"/>
<path d="M7412 4687 c-105 -191 -332 -354 -585 -422 -111 -30 -246 -51 -451
-70 -87 -8 -160 -16 -162 -18 -2 -1 83 -21 189 -42 170 -35 208 -39 327 -39
158 1 249 21 363 81 222 117 340 289 361 526 2 31 3 57 1 57 -2 0 -21 -33 -43
-73z"/>
<path d="M5270 3441 c-43 -4 -65 -10 -64 -18 1 -7 2 -197 3 -423 l1 -410 85 0
84 0 3 132 3 131 110 -131 110 -131 104 0 c98 -1 103 0 89 17 -8 9 -67 79
-132 155 -65 76 -116 142 -114 147 2 6 54 64 116 130 l113 120 -94 0 -95 0
-103 -117 -104 -116 -3 261 -2 262 -23 -2 c-12 -1 -51 -4 -87 -7z"/>
<path d="M6195 3426 c-123 -30 -237 -121 -289 -230 -100 -211 -13 -477 187
-576 125 -61 308 -63 436 -4 65 29 121 70 121 87 0 7 -18 32 -38 56 l-38 44
-47 -36 c-62 -47 -108 -62 -197 -62 -128 0 -217 60 -261 175 -17 45 -20 71
-17 145 6 133 52 211 154 261 49 24 62 26 142 22 89 -5 169 -33 201 -72 8 -9
17 -16 21 -16 4 0 24 25 44 56 43 64 43 62 -46 109 -97 51 -259 69 -373 41z"/>
<path d="M8063 3419 c-80 -39 -123 -111 -123 -204 l0 -55 -45 0 -45 0 0 -54 0
-55 42 -3 42 -3 -3 -228 -3 -228 84 3 83 3 3 228 2 227 70 0 70 0 0 55 0 55
-70 0 -70 0 0 53 c0 30 6 62 15 73 22 32 68 48 112 38 21 -4 42 -8 47 -8 10
-1 34 58 35 86 2 41 -172 54 -246 17z"/>
<path d="M3192 3008 l3 -423 88 -2 87 -3 0 144 0 143 123 6 c155 7 205 24 272
91 58 59 75 103 75 197 -1 106 -44 180 -130 224 -72 36 -139 45 -336 45 l-184
0 2 -422z m403 263 c65 -36 83 -144 35 -211 -27 -37 -99 -60 -192 -60 l-68 0
0 143 c0 79 3 147 7 151 13 12 187 -6 218 -23z"/>
<path d="M8495 3323 c-11 -2 -44 -9 -72 -14 l-53 -10 0 -70 0 -69 -45 0 -45 0
0 -55 0 -55 45 0 45 0 0 -172 c0 -153 2 -176 21 -214 35 -73 141 -104 252 -73
37 10 37 10 37 64 l0 54 -54 -6 c-46 -5 -57 -2 -75 16 -19 19 -21 33 -22 161
-1 77 -2 146 -3 153 -1 8 22 13 77 15 l77 3 0 54 0 55 -74 0 -73 0 -6 44 c-4
23 -4 59 -1 78 7 38 0 47 -31 41z"/>
<path d="M4117 3170 c-139 -35 -227 -150 -227 -295 0 -117 64 -225 158 -267
124 -55 289 -38 392 41 l24 19 -28 41 c-16 23 -32 41 -36 41 -4 0 -29 -12 -56
-27 -115 -65 -258 -17 -280 95 l-6 32 207 0 208 0 -5 73 c-6 86 -31 141 -88
189 -62 54 -178 79 -263 58z m127 -114 c41 -17 66 -51 66 -88 l0 -28 -126 0
-126 0 6 26 c22 85 100 124 180 90z"/>
<path d="M4738 3169 c-46 -7 -158 -45 -158 -53 0 -1 7 -26 16 -55 12 -43 18
-51 32 -45 9 4 42 16 72 27 106 37 200 5 200 -70 0 -33 0 -33 -47 -33 -144 0
-260 -45 -295 -114 -42 -82 -10 -194 66 -230 72 -34 223 -13 265 37 17 21 31
22 31 3 0 -30 55 -56 118 -56 87 0 92 4 92 61 0 47 -1 49 -23 44 -14 -4 -28
-1 -35 7 -6 8 -12 80 -14 188 -3 166 -4 177 -27 209 -46 64 -169 98 -293 80z
m162 -374 c0 -47 -4 -60 -26 -80 -44 -41 -122 -45 -158 -9 -9 8 -16 30 -16 48
0 58 57 93 158 95 l42 1 0 -55z"/>
<path d="M7031 3149 c-24 -12 -56 -40 -72 -62 l-29 -40 0 56 0 57 -80 0 -81 0
3 -282 3 -283 83 -3 83 -3 -3 163 c-3 148 -1 166 17 197 34 58 68 76 141 76
l65 0 -3 70 -3 70 -40 3 c-26 2 -56 -5 -84 -19z"/>
<path d="M7380 3159 c-65 -18 -110 -42 -110 -58 0 -9 5 -33 10 -53 l11 -37 46
21 c26 11 74 23 108 26 97 7 144 -27 133 -99 -3 -23 -8 -24 -103 -30 -55 -4
-117 -14 -137 -23 -88 -38 -138 -114 -124 -188 17 -89 83 -138 189 -138 71 0
119 16 165 55 l30 25 6 -25 c12 -46 111 -71 180 -45 22 8 26 16 26 50 0 35 -3
40 -23 40 -43 0 -47 15 -47 185 0 147 -2 165 -22 205 -34 67 -95 94 -213 97
-49 1 -106 -2 -125 -8z m198 -371 c-3 -58 -5 -64 -37 -85 -37 -25 -98 -31
-132 -12 -31 16 -41 54 -24 94 7 19 15 35 17 35 2 0 21 7 43 15 22 8 62 14 88
15 l48 0 -3 -62z"/>
<path d="M4200 2345 c0 -8 2 -15 4 -15 2 0 6 7 10 15 3 8 1 15 -4 15 -6 0 -10
-7 -10 -15z"/>
<path d="M4345 2350 c3 -5 8 -10 11 -10 2 0 4 5 4 10 0 6 -5 10 -11 10 -5 0
-7 -4 -4 -10z"/>
<path d="M4658 2353 c7 -3 16 -2 19 1 4 3 -2 6 -13 5 -11 0 -14 -3 -6 -6z"/>
<path d="M5127 2336 c21 -28 24 -28 16 2 -3 12 -12 22 -20 22 -11 0 -10 -5 4
-24z"/>
<path d="M5313 2354 c9 -9 97 -10 97 -1 0 4 -23 7 -52 7 -28 0 -49 -3 -45 -6z"/>
<path d="M5910 2358 c0 -2 9 -11 20 -21 11 -9 20 -13 20 -7 0 5 -9 14 -20 20
-11 6 -20 9 -20 8z"/>
<path d="M6047 2353 c-3 -5 -1 -26 3 -48 l8 -40 1 48 c1 45 -2 56 -12 40z"/>
<path d="M6545 2340 c2 -31 15 -37 15 -7 0 15 -4 27 -8 27 -5 0 -8 -9 -7 -20z"/>
<path d="M6740 2349 c0 -5 5 -7 10 -4 6 3 10 8 10 11 0 2 -4 4 -10 4 -5 0 -10
-5 -10 -11z"/>
<path d="M7302 2355 c9 -10 138 -13 132 -4 -3 5 -35 9 -71 9 -37 0 -64 -2 -61
-5z"/>
<path d="M4460 2340 c0 -5 5 -10 10 -10 6 0 10 5 10 10 0 6 -4 10 -10 10 -5 0
-10 -4 -10 -10z"/>
<path d="M4620 2340 c-9 -6 -10 -10 -3 -10 6 0 15 5 18 10 8 12 4 12 -15 0z"/>
<path d="M7364 2304 c-4 -14 -3 -29 2 -34 5 -5 10 6 11 26 3 40 -4 45 -13 8z"/>
<path d="M4133 2291 c6 -17 14 -28 19 -25 4 3 1 16 -8 30 -21 32 -25 30 -11
-5z"/>
<path d="M4211 2304 c0 -11 3 -14 6 -6 3 7 2 16 -1 19 -3 4 -6 -2 -5 -13z"/>
<path d="M7890 2311 c0 -5 5 -13 10 -16 6 -3 10 -2 10 4 0 5 -4 13 -10 16 -5
3 -10 2 -10 -4z"/>
<path d="M5332 2285 c0 -16 2 -22 5 -12 2 9 2 23 0 30 -3 6 -5 -1 -5 -18z"/>
<path d="M4404 2283 c2 -9 8 -19 14 -21 7 -2 9 -9 6 -14 -4 -7 -2 -8 4 -4 9 5
7 14 -4 32 -19 28 -23 30 -20 7z"/>
<path d="M4880 2248 c11 -29 20 -54 20 -55 0 -1 7 0 15 3 8 4 12 10 9 15 -3 5
-9 7 -13 5 -4 -3 -8 1 -8 8 0 22 -24 76 -34 76 -5 0 0 -24 11 -52z"/>
<path d="M5797 2280 c3 -11 7 -20 9 -20 2 0 4 9 4 20 0 11 -4 20 -9 20 -5 0
-7 -9 -4 -20z"/>
<path d="M6742 2280 c0 -14 2 -19 5 -12 2 6 2 18 0 25 -3 6 -5 1 -5 -13z"/>
<path d="M6938 2275 c2 -14 8 -25 13 -25 5 0 8 -5 7 -11 -2 -6 4 -14 12 -16
13 -4 13 -3 0 6 -8 6 -12 11 -7 11 7 0 -20 60 -27 60 -2 0 -1 -11 2 -25z"/>
<path d="M4943 2268 c-19 -25 -23 -37 -14 -42 5 -3 14 8 20 24 11 32 9 37 -6
18z"/>
<path d="M5980 2269 c0 -5 5 -7 10 -4 6 3 10 8 10 11 0 2 -4 4 -10 4 -5 0 -10
-5 -10 -11z"/>
<path d="M3937 2220 c-3 -11 -1 -23 4 -26 5 -3 9 6 9 20 0 31 -6 34 -13 6z"/>
<path d="M4183 2220 c4 -18 37 -27 37 -10 0 6 -5 8 -11 4 -6 -3 -16 0 -21 7
-8 12 -9 11 -5 -1z"/>
<path d="M5910 2216 c0 -9 5 -16 10 -16 6 0 10 4 10 9 0 6 -4 13 -10 16 -5 3
-10 -1 -10 -9z"/>
<path d="M6880 2215 c0 -8 4 -15 10 -15 5 0 7 7 4 15 -4 8 -8 15 -10 15 -2 0
-4 -7 -4 -15z"/>
<path d="M4075 2210 c-3 -5 -1 -10 4 -10 6 0 11 5 11 10 0 6 -2 10 -4 10 -3 0
-8 -4 -11 -10z"/>
<path d="M6230 2210 c-23 -7 -23 -8 -3 -9 12 -1 25 4 28 9 3 6 5 10 3 9 -2 -1
-14 -5 -28 -9z"/>
<path d="M4335 2200 c4 -6 11 -8 16 -5 14 9 11 15 -7 15 -8 0 -12 -5 -9 -10z"/>
<path d="M6548 2203 c7 -3 16 -2 19 1 4 3 -2 6 -13 5 -11 0 -14 -3 -6 -6z"/>
<path d="M6588 2203 c6 -2 18 -2 25 0 6 3 1 5 -13 5 -14 0 -19 -2 -12 -5z"/>
<path d="M7603 2203 c9 -2 25 -2 35 0 9 3 1 5 -18 5 -19 0 -27 -2 -17 -5z"/>
<path d="M3790 1884 c-6 -14 -10 -30 -10 -35 0 -5 -5 -9 -12 -9 -7 0 -5 -5 5
-12 9 -8 18 -32 20 -58 l4 -45 1 53 c2 47 4 52 25 53 l22 0 -22 9 c-28 12 -30
40 -3 47 22 6 17 23 -6 23 -8 0 -19 -12 -24 -26z"/>
<path d="M5017 1903 c-7 -13 -1 -162 6 -170 4 -3 7 35 7 85 0 86 -3 103 -13
85z"/>
<path d="M5660 1820 c0 -51 2 -91 4 -89 7 7 9 169 2 176 -3 3 -6 -36 -6 -87z"/>
<path d="M5717 1903 c-11 -11 -8 -173 3 -173 6 0 10 37 10 90 0 90 -1 96 -13
83z"/>
<path d="M6518 1904 c-12 -11 -10 -174 2 -174 6 0 10 15 10 34 0 50 9 66 36
66 24 0 29 -10 37 -75 2 -18 5 -9 6 21 1 59 -13 78 -52 69 -24 -6 -26 -4 -29
30 -2 20 -6 33 -10 29z"/>
<path d="M3410 1880 c-11 -11 -22 -31 -26 -45 -8 -31 12 -82 37 -95 35 -19 99
-9 99 16 0 10 -6 10 -29 -3 -27 -16 -30 -16 -55 0 -74 49 -15 159 64 117 22
-12 27 -1 8 18 -19 19 -76 14 -98 -8z"/>
<path d="M3952 1889 c2 -6 8 -10 13 -10 5 0 11 4 13 10 2 6 -4 11 -13 11 -9 0
-15 -5 -13 -11z"/>
<path d="M4367 1824 c-4 -42 -4 -80 -1 -85 3 -5 25 -9 50 -9 58 0 94 32 94 85
0 52 -36 85 -93 85 l-44 0 -6 -76z m105 39 c22 -20 23 -70 1 -95 -10 -11 -30
-18 -53 -18 l-37 0 -2 65 -2 65 37 0 c21 0 46 -7 56 -17z"/>
<path d="M4540 1885 c0 -8 5 -15 10 -15 6 0 10 7 10 15 0 8 -4 15 -10 15 -5 0
-10 -7 -10 -15z"/>
<path d="M4740 1890 c0 -5 5 -10 10 -10 6 0 10 5 10 10 0 6 -4 10 -10 10 -5 0
-10 -4 -10 -10z"/>
<path d="M5140 1815 l0 -85 56 0 c34 0 53 4 49 10 -3 6 -24 10 -46 10 -37 0
-39 2 -39 30 0 28 2 30 40 30 22 0 40 5 40 10 0 6 -18 10 -40 10 -36 0 -40 3
-40 25 0 22 4 25 39 25 22 0 43 5 46 10 4 6 -15 10 -49 10 l-56 0 0 -85z"/>
<path d="M6360 1890 c0 -5 11 -10 25 -10 24 0 25 -2 25 -75 0 -43 4 -75 10
-75 6 0 10 32 10 75 l0 75 30 0 c17 0 30 5 30 10 0 6 -28 10 -65 10 -37 0 -65
-4 -65 -10z"/>
<path d="M7160 1813 c0 -88 16 -108 22 -28 3 35 6 40 28 40 23 0 25 -4 28 -47
2 -27 7 -48 13 -48 16 0 10 87 -7 104 -18 19 -20 19 -45 6 -17 -10 -19 -7 -19
25 0 19 -4 35 -10 35 -6 0 -10 -36 -10 -87z"/>
<path d="M7370 1815 c0 -50 4 -85 10 -85 6 0 10 35 10 85 0 50 -4 85 -10 85
-6 0 -10 -35 -10 -85z"/>
<path d="M8180 1890 c0 -5 7 -10 15 -10 8 0 15 5 15 10 0 6 -7 10 -15 10 -8 0
-15 -4 -15 -10z"/>
<path d="M3879 1878 c-1 -5 -2 -13 -3 -18 0 -6 -7 -14 -14 -19 -11 -7 -11 -9
2 -14 9 -4 16 -22 18 -49 3 -38 6 -43 28 -45 l25 -3 -22 12 c-31 15 -33 77 -3
85 11 3 17 9 14 14 -3 5 -10 7 -15 4 -5 -4 -13 4 -18 17 -6 13 -11 20 -12 16z"/>
<path d="M4810 1868 c0 -9 -6 -18 -12 -21 -10 -3 -10 -7 0 -19 7 -9 12 -29 10
-45 -3 -37 8 -53 35 -52 l22 0 -22 16 c-27 19 -31 68 -6 81 15 9 14 12 -5 33
-17 18 -22 19 -22 7z"/>
<path d="M8110 1866 c0 -8 -6 -17 -12 -20 -10 -5 -10 -7 0 -12 7 -3 12 -24 12
-50 0 -45 14 -62 42 -51 8 4 5 8 -9 12 -19 6 -23 15 -23 46 0 28 4 39 15 39 8
0 15 5 15 10 0 6 -4 10 -10 10 -5 0 -10 7 -10 15 0 8 -4 15 -10 15 -5 0 -10
-6 -10 -14z"/>
<path d="M3588 1842 c-27 -3 -28 -6 -28 -58 0 -30 5 -54 10 -54 6 0 10 18 10
39 0 30 6 44 22 55 26 18 23 23 -14 18z"/>
<path d="M3663 1843 c-24 -9 -13 -21 18 -19 18 0 34 -5 36 -11 3 -8 -4 -13
-19 -13 -33 0 -61 -22 -56 -46 3 -15 12 -19 51 -20 l47 -2 0 37 c0 60 -33 92
-77 74z m55 -75 c-7 -21 -36 -34 -49 -21 -6 6 -8 16 -5 22 10 15 59 14 54 -1z"/>
<path d="M3963 1790 c0 -36 2 -50 4 -32 2 17 2 47 0 65 -2 17 -4 3 -4 -33z"/>
<path d="M4017 1844 c-11 -11 -8 -114 3 -114 6 0 10 17 10 38 0 41 14 62 41
62 22 0 31 -25 23 -66 -4 -22 -2 -34 5 -34 7 0 11 20 11 49 0 59 -18 80 -55
63 -16 -7 -25 -8 -27 -1 -2 6 -7 7 -11 3z"/>
<path d="M4165 1834 c-20 -20 -19 -68 2 -89 11 -11 26 -15 45 -11 20 4 28 2
28 -9 0 -23 -36 -38 -61 -25 -24 13 -41 4 -19 -10 23 -15 67 -12 84 6 11 11
16 35 16 82 l0 67 -40 2 c-24 2 -45 -3 -55 -13z m70 -44 c0 -32 -2 -35 -30
-35 -24 0 -31 5 -33 23 -6 38 5 54 35 50 25 -3 28 -7 28 -38z"/>
<path d="M4609 1829 c-23 -23 -24 -47 -3 -78 13 -18 23 -22 45 -17 24 4 29 2
29 -13 0 -24 -23 -33 -56 -21 -34 13 -39 13 -24 -5 15 -18 71 -20 88 -3 7 7
12 41 12 83 l0 70 -36 2 c-23 1 -42 -5 -55 -18z m66 -39 c0 -31 -3 -35 -27
-38 -22 -3 -29 2 -34 22 -8 32 12 58 40 54 17 -2 21 -10 21 -38z"/>
<path d="M4747 1843 c-11 -10 -8 -113 3 -113 6 0 10 27 10 60 0 61 -1 65 -13
53z"/>
<path d="M4903 1843 c-24 -9 -13 -20 17 -15 42 6 40 -21 -2 -33 -26 -8 -33
-15 -33 -35 0 -23 4 -25 45 -25 43 1 45 2 47 35 5 57 -30 91 -74 73z m51 -77
c-12 -30 -54 -30 -54 0 0 9 11 14 30 14 21 0 28 -4 24 -14z"/>
<path d="M5276 1838 c4 -7 14 -21 22 -30 13 -15 12 -20 -7 -44 -12 -15 -19
-30 -15 -33 3 -3 14 5 24 19 l18 24 20 -24 c11 -14 23 -22 26 -19 4 3 -3 18
-15 32 -19 25 -19 28 -5 49 23 33 19 47 -6 18 l-20 -25 -15 23 c-16 23 -40 32
-27 10z"/>
<path d="M5407 1832 c-20 -22 -22 -73 -5 -90 17 -17 63 -15 78 3 14 17 3 20
-19 6 -26 -17 -53 6 -49 42 3 30 5 32 41 31 30 -1 35 1 26 12 -16 20 -53 17
-72 -4z"/>
<path d="M5534 1825 c-25 -26 -26 -52 -2 -82 13 -16 57 -17 78 -2 11 8 8 9
-13 4 -28 -6 -57 8 -57 26 0 4 19 9 43 11 36 3 42 6 39 23 -4 22 -29 45 -49
45 -8 0 -25 -11 -39 -25z m66 -10 c11 -13 7 -15 -24 -15 -34 0 -44 8 -29 23
11 12 40 8 53 -8z"/>
<path d="M5780 1830 c-39 -39 -11 -103 43 -98 17 2 32 9 35 16 3 11 0 12 -17
3 -15 -9 -27 -9 -41 -1 -33 18 -23 30 25 30 38 0 45 3 45 19 0 20 -35 51 -57
51 -7 0 -22 -9 -33 -20z m68 -17 c2 -9 -8 -13 -33 -13 -33 0 -36 2 -25 15 15
18 51 16 58 -2z"/>
<path d="M5904 1841 c-9 -9 -3 -111 6 -111 6 0 10 17 10 38 0 41 14 62 42 62
18 0 24 -15 31 -75 2 -18 5 -9 6 21 0 32 -4 56 -12 63 -12 10 -73 11 -83 2z"/>
<path d="M6057 1832 c-21 -23 -22 -66 -1 -86 20 -20 58 -21 74 -1 14 17 3 20
-19 6 -9 -6 -22 -6 -32 -1 -44 24 -27 85 22 78 31 -5 40 6 13 16 -26 10 -40 7
-57 -12z"/>
<path d="M6181 1824 c-25 -32 -26 -43 -5 -72 12 -18 24 -22 52 -20 19 2 37 9
40 16 3 9 -2 10 -22 2 -29 -11 -52 -5 -60 16 -4 11 5 14 38 14 51 0 59 6 44
34 -23 44 -57 48 -87 10z m67 -11 c2 -9 -7 -13 -27 -13 -30 0 -39 9 -24 24 11
10 46 3 51 -11z"/>
<path d="M6654 1841 c-9 -9 -3 -111 6 -111 6 0 10 20 10 44 0 36 4 46 20 51
29 9 25 23 -6 21 -14 0 -28 -3 -30 -5z"/>
<path d="M6747 1832 c-37 -40 -11 -102 42 -102 36 0 51 17 51 56 0 54 -60 83
-93 46z m74 -30 c12 -32 -23 -67 -51 -52 -20 11 -28 59 -13 74 15 14 56 1 64
-22z"/>
<path d="M6884 1795 l1 -60 45 0 44 1 -3 54 c-3 65 -11 81 -11 22 0 -37 -19
-72 -39 -72 -17 0 -30 27 -34 70 -3 33 -4 29 -3 -15z"/>
<path d="M7033 1835 c-48 -34 -18 -112 39 -101 20 4 28 2 28 -9 0 -20 -31 -34
-55 -24 -31 12 -39 10 -25 -6 16 -20 64 -19 84 1 20 20 23 144 4 144 -7 0 -22
3 -33 6 -11 2 -30 -2 -42 -11z m62 -45 c0 -32 -2 -35 -30 -35 -24 0 -31 5 -33
23 -6 38 5 54 35 50 25 -3 28 -7 28 -38z"/>
<path d="M7430 1790 c0 -71 18 -81 22 -12 3 43 5 47 28 47 23 0 25 -4 28 -47
2 -27 8 -48 13 -48 6 0 9 22 7 51 -3 60 -24 82 -58 61 -12 -7 -20 -8 -20 -2 0
5 -4 10 -10 10 -6 0 -10 -27 -10 -60z"/>
<path d="M7570 1786 c0 -67 17 -67 22 -1 3 35 6 40 28 40 23 0 25 -4 28 -47 4
-59 22 -64 22 -5 0 58 -11 71 -59 72 l-41 1 0 -60z"/>
<path d="M7722 1834 c-26 -18 -30 -65 -6 -89 44 -43 121 13 93 67 -22 41 -50
49 -87 22z m70 -30 c11 -23 10 -29 -11 -45 -40 -32 -75 3 -55 55 10 26 53 20
66 -10z"/>
<path d="M7841 1835 c-1 -27 35 -105 49 -105 5 0 10 2 10 5 0 2 9 27 20 55 11
27 15 50 10 50 -6 0 -15 -12 -21 -27 -5 -16 -12 -35 -15 -43 -4 -10 -14 2 -29
35 -14 30 -24 42 -24 30z"/>
<path d="M7983 1843 c-24 -9 -13 -21 18 -19 18 0 34 -5 36 -11 3 -8 -4 -13
-19 -13 -37 0 -62 -22 -54 -48 6 -19 14 -22 52 -20 l44 1 0 43 c0 59 -31 86
-77 67z m57 -67 c0 -20 -27 -39 -45 -32 -21 7 -19 33 3 39 32 9 42 7 42 -7z"/>
<path d="M8250 1830 c-24 -24 -25 -48 -4 -78 30 -43 104 -17 104 36 0 28 -34
62 -60 62 -11 0 -29 -9 -40 -20z m74 -16 c15 -39 -9 -76 -44 -67 -25 7 -37 48
-20 68 16 20 56 19 64 -1z"/>
<path d="M8380 1788 c0 -70 18 -78 22 -10 3 43 5 47 28 47 23 0 25 -4 28 -47
4 -59 22 -64 22 -5 0 58 -11 71 -59 72 l-41 1 0 -58z"/>
<path d="M4540 1785 c0 -30 5 -55 10 -55 6 0 10 25 10 55 0 30 -4 55 -10 55
-5 0 -10 -25 -10 -55z"/>
<path d="M8181 1803 c0 -21 4 -47 9 -58 6 -14 9 -4 9 38 1 32 -3 57 -9 57 -5
0 -10 -17 -9 -37z"/>
<path d="M8516 1753 c-11 -11 -6 -23 9 -23 8 0 15 4 15 9 0 13 -16 22 -24 14z"/>
</g>
</svg>
